<svg width="20" height="20" viewBox="0 0 20 20" fill="none" xmlns="http://www.w3.org/2000/svg">
<g clip-path="url(#clip0_416_940)">
<path d="M18.2969 14.8398C18.2969 15.1602 18.1875 15.4258 17.9688 15.6367C17.7578 15.8477 17.5117 15.9531 17.2305 15.9531C16.9414 15.9531 16.6914 15.8438 16.4805 15.625C16.2773 15.4062 16.1758 15.1602 16.1758 14.8867V10.5508L16.3867 5.07812L14.4531 7.26953L2.81641 18.8945C2.60547 19.1055 2.35938 19.2109 2.07812 19.2109C1.88281 19.2109 1.70312 19.1602 1.53906 19.0586C1.375 18.957 1.24219 18.8242 1.14062 18.6602C1.03906 18.4883 0.988281 18.3086 0.988281 18.1211C0.988281 17.8477 1.09766 17.6016 1.31641 17.3828L12.9297 5.74609L15.1094 3.83594L9.39062 4.02344H5.3125C5.03906 4.02344 4.79297 3.92187 4.57422 3.71875C4.36328 3.50781 4.25781 3.26172 4.25781 2.98047C4.25781 2.69922 4.35938 2.45312 4.5625 2.24219C4.76562 2.02344 5.03125 1.91406 5.35938 1.91406H17.1484C17.5 1.91406 17.7773 2.01953 17.9805 2.23047C18.1836 2.44141 18.2852 2.71484 18.2852 3.05078L18.2969 14.8398Z" fill="white"/>
</g>
<defs>
<clipPath id="clip0_416_940">
<rect width="20" height="20" fill="white"/>
</clipPath>
</defs>
</svg>
