<svg width="14" height="4" viewBox="0 0 14 4" fill="none" xmlns="http://www.w3.org/2000/svg">
<path d="M1.9209 3.35645C1.67936 3.35645 1.46061 3.29948 1.26465 3.18555C1.06868 3.06706 0.911458 2.90983 0.792969 2.71387C0.679036 2.5179 0.62207 2.30143 0.62207 2.06445C0.62207 1.82292 0.679036 1.60417 0.792969 1.4082C0.911458 1.21224 1.06868 1.05729 1.26465 0.943359C1.46061 0.82487 1.67936 0.765625 1.9209 0.765625C2.15788 0.765625 2.37435 0.82487 2.57031 0.943359C2.76628 1.05729 2.92122 1.21224 3.03516 1.4082C3.15365 1.60417 3.21289 1.82292 3.21289 2.06445C3.21289 2.30143 3.15365 2.5179 3.03516 2.71387C2.92122 2.90983 2.76628 3.06706 2.57031 3.18555C2.37435 3.29948 2.15788 3.35645 1.9209 3.35645ZM7 3.35645C6.75846 3.35645 6.53971 3.29948 6.34375 3.18555C6.14779 3.06706 5.99056 2.90983 5.87207 2.71387C5.75814 2.5179 5.70117 2.30143 5.70117 2.06445C5.70117 1.82292 5.75814 1.60417 5.87207 1.4082C5.99056 1.21224 6.14779 1.05729 6.34375 0.943359C6.53971 0.82487 6.75846 0.765625 7 0.765625C7.23698 0.765625 7.45345 0.82487 7.64941 0.943359C7.84538 1.05729 8.00033 1.21224 8.11426 1.4082C8.23275 1.60417 8.29199 1.82292 8.29199 2.06445C8.29199 2.30143 8.23275 2.5179 8.11426 2.71387C8.00033 2.90983 7.84538 3.06706 7.64941 3.18555C7.45345 3.29948 7.23698 3.35645 7 3.35645ZM12.0791 3.35645C11.8376 3.35645 11.6188 3.29948 11.4229 3.18555C11.2269 3.06706 11.0697 2.90983 10.9512 2.71387C10.8372 2.5179 10.7803 2.30143 10.7803 2.06445C10.7803 1.82292 10.8372 1.60417 10.9512 1.4082C11.0697 1.21224 11.2269 1.05729 11.4229 0.943359C11.6188 0.82487 11.8376 0.765625 12.0791 0.765625C12.3161 0.765625 12.5326 0.82487 12.7285 0.943359C12.9245 1.05729 13.0817 1.21224 13.2002 1.4082C13.3187 1.60417 13.3779 1.82292 13.3779 2.06445C13.3779 2.30143 13.3187 2.5179 13.2002 2.71387C13.0817 2.90983 12.9245 3.06706 12.7285 3.18555C12.5326 3.29948 12.3161 3.35645 12.0791 3.35645Z" fill="white" style="fill:white;fill-opacity:1;"/>
</svg>
