<svg width="17" height="12" viewBox="0 0 17 12" fill="none" xmlns="http://www.w3.org/2000/svg">
<path d="M2.73047 11.8613C2.07878 11.8613 1.58431 11.6973 1.24707 11.3691C0.914388 11.041 0.748047 10.5534 0.748047 9.90625V2.76953C0.748047 2.1224 0.907552 1.63477 1.22656 1.30664C1.54557 0.978516 1.98991 0.814453 2.55957 0.814453H14.2764C14.9281 0.814453 15.4202 0.978516 15.7529 1.30664C16.0902 1.63477 16.2588 2.1224 16.2588 2.76953V9.90625C16.2588 10.5534 16.0993 11.041 15.7803 11.3691C15.4613 11.6973 15.0146 11.8613 14.4404 11.8613H2.73047ZM2.70312 10.9658H14.3037C14.6364 10.9658 14.8939 10.877 15.0762 10.6992C15.263 10.5169 15.3564 10.2526 15.3564 9.90625V2.77637C15.3564 2.43001 15.263 2.16569 15.0762 1.9834C14.8939 1.80111 14.6364 1.70996 14.3037 1.70996H2.70312C2.36589 1.70996 2.10612 1.80111 1.92383 1.9834C1.74154 2.16569 1.65039 2.42773 1.65039 2.76953V9.89941C1.65039 10.2503 1.74154 10.5169 1.92383 10.6992C2.10612 10.877 2.36589 10.9658 2.70312 10.9658ZM8.5 7.99902C8.29492 7.99902 8.09668 7.96029 7.90527 7.88281C7.71387 7.80078 7.52702 7.67773 7.34473 7.51367L1.25391 2.03125L1.86914 1.41602L7.87109 6.81641C8.06706 6.9987 8.27669 7.08984 8.5 7.08984C8.71875 7.08984 8.92839 6.9987 9.12891 6.81641L15.124 1.41602L15.7461 2.03125L9.64844 7.51367C9.4707 7.67773 9.28385 7.80078 9.08789 7.88281C8.89648 7.96029 8.70052 7.99902 8.5 7.99902ZM1.96484 11.082L1.35645 10.4668L5.98438 5.83887L6.59961 6.44727L1.96484 11.082ZM15.042 11.0889L10.3936 6.44727L11.0156 5.83887L15.6572 10.4736L15.042 11.0889Z" fill="white"/>
</svg>
