<svg width="20" height="20" viewBox="0 0 20 20" fill="none" xmlns="http://www.w3.org/2000/svg">
<g clip-path="url(#clip0_416_940)">
<path d="M0.488281 10.0391C0.488281 9.75 0.589844 9.50391 0.792969 9.30078C1.00391 9.08984 1.25 8.98438 1.53125 8.98438H9.11328V1.41406C9.11328 1.13281 9.21484 0.890625 9.41797 0.6875C9.62109 0.476562 9.86719 0.371094 10.1562 0.371094C10.4453 0.371094 10.6914 0.476562 10.8945 0.6875C11.1055 0.890625 11.2109 1.13281 11.2109 1.41406V8.98438H18.7812C19.0625 8.98438 19.3047 9.08984 19.5078 9.30078C19.7188 9.50391 19.8242 9.75 19.8242 10.0391C19.8242 10.3281 19.7188 10.5742 19.5078 10.7773C19.3047 10.9805 19.0625 11.082 18.7812 11.082H11.2109V18.6641C11.2109 18.9453 11.1055 19.1875 10.8945 19.3906C10.6914 19.6016 10.4453 19.707 10.1562 19.707C9.86719 19.707 9.62109 19.6016 9.41797 19.3906C9.21484 19.1875 9.11328 18.9453 9.11328 18.6641V11.082H1.53125C1.25 11.082 1.00391 10.9805 0.792969 10.7773C0.589844 10.5742 0.488281 10.3281 0.488281 10.0391Z" fill="black"/>
</g>
<defs>
<clipPath id="clip0_416_940">
<rect width="20" height="20" fill="white"/>
</clipPath>
</defs>
</svg>
